<svg viewBox="0 0 550 90" xmlns="http://www.w3.org/2000/svg">
<path d="M217.311 89.21C205.13 89.21 195.934 86.79 189.723 81.95C183.512 77.0293 180.406 69.4467 180.406 59.202C180.406 57.4273 180.446 56.0963 180.527 55.209L183.189 19.151C183.27 17.8603 183.028 16.852 182.463 16.126C181.979 15.3193 181.092 14.7143 179.801 14.311L177.139 13.343C176.171 12.9397 175.485 12.496 175.082 12.012C174.759 11.528 174.598 10.802 174.598 9.834V6.325C174.598 5.43766 174.88 4.71166 175.445 4.147C176.01 3.58233 176.776 3.29999 177.744 3.29999H209.204C210.253 3.29999 211.019 3.58233 211.503 4.147C212.068 4.631 212.35 5.357 212.35 6.325V9.834C212.35 10.802 212.148 11.528 211.745 12.012C211.422 12.496 210.777 12.9397 209.809 13.343L207.147 14.311C205.937 14.7143 205.09 15.279 204.606 16.005C204.203 16.731 203.961 17.7797 203.88 19.151L202.065 55.209C201.742 62.5497 203.033 67.8737 205.937 71.181C208.922 74.4077 213.762 76.021 220.457 76.021C226.588 76.021 231.065 74.448 233.888 71.302C236.792 68.156 238.083 63.195 237.76 56.419L236.066 18.546C235.985 17.2553 235.703 16.247 235.219 15.521C234.735 14.795 233.888 14.19 232.678 13.706L230.016 12.859C229.048 12.4557 228.362 12.012 227.959 11.528C227.636 11.044 227.475 10.318 227.475 9.35V6.325C227.475 5.43766 227.757 4.71166 228.322 4.147C228.887 3.58233 229.653 3.29999 230.621 3.29999H254.095C255.144 3.29999 255.91 3.58233 256.394 4.147C256.959 4.631 257.241 5.357 257.241 6.325V9.35C257.241 10.318 257.039 11.044 256.636 11.528C256.233 12.012 255.587 12.4557 254.7 12.859L252.038 13.706C250.747 14.19 249.82 14.8353 249.255 15.642C248.771 16.368 248.569 17.336 248.65 18.546L251.07 56.419C251.151 57.145 251.191 58.2743 251.191 59.807C251.191 69.5677 248.247 76.9083 242.358 81.829C236.55 86.7497 228.201 89.21 217.311 89.21ZM268.964 88C267.996 88 267.229 87.7177 266.665 87.153C266.1 86.5883 265.818 85.8623 265.818 84.975V81.466C265.818 80.498 265.979 79.772 266.302 79.288C266.705 78.804 267.391 78.3603 268.359 77.957L271.021 76.989C272.311 76.5857 273.199 76.021 273.683 75.295C274.167 74.569 274.409 73.5203 274.409 72.149V19.151C274.409 17.7797 274.167 16.731 273.683 16.005C273.199 15.279 272.311 14.7143 271.021 14.311L268.359 13.343C267.391 12.9397 266.705 12.496 266.302 12.012C265.979 11.528 265.818 10.802 265.818 9.834V6.325C265.818 5.43766 266.1 4.71166 266.665 4.147C267.229 3.58233 267.996 3.29999 268.964 3.29999H300.424C301.392 3.29999 302.118 3.58233 302.602 4.147C303.166 4.71166 303.449 5.43766 303.449 6.325V9.834C303.449 10.802 303.247 11.528 302.844 12.012C302.521 12.496 301.916 12.9397 301.029 13.343L298.246 14.311C297.036 14.7143 296.189 15.279 295.705 16.005C295.221 16.731 294.979 17.7797 294.979 19.151V72.149C294.979 73.5203 295.221 74.569 295.705 75.295C296.189 76.021 297.036 76.5857 298.246 76.989L301.029 77.957C301.916 78.3603 302.521 78.804 302.844 79.288C303.247 79.772 303.449 80.498 303.449 81.466V84.975C303.449 85.8623 303.166 86.5883 302.602 87.153C302.118 87.7177 301.392 88 300.424 88H268.964ZM335.845 88C334.877 88 334.11 87.7177 333.546 87.153C332.981 86.5883 332.699 85.8623 332.699 84.975V81.466C332.699 80.498 332.86 79.772 333.183 79.288C333.586 78.804 334.272 78.3603 335.24 77.957L337.902 76.989C339.192 76.5857 340.08 76.021 340.564 75.295C341.048 74.569 341.29 73.5203 341.29 72.149V19.151C341.29 17.7797 341.048 16.731 340.564 16.005C340.08 15.279 339.192 14.7143 337.902 14.311L335.24 13.343C334.272 12.9397 333.586 12.496 333.183 12.012C332.86 11.528 332.699 10.802 332.699 9.834V6.325C332.699 5.43766 332.981 4.71166 333.546 4.147C334.11 3.58233 334.877 3.29999 335.845 3.29999H367.305C368.273 3.29999 368.999 3.58233 369.483 4.147C370.047 4.71166 370.33 5.43766 370.33 6.325V9.834C370.33 10.802 370.128 11.528 369.725 12.012C369.402 12.496 368.797 12.9397 367.91 13.343L365.127 14.311C363.917 14.7143 363.07 15.279 362.586 16.005C362.102 16.731 361.86 17.7797 361.86 19.151V41.536C361.86 42.4233 362.142 42.867 362.707 42.867C362.949 42.867 363.271 42.6653 363.675 42.262L388.238 16.126C388.883 15.4807 389.206 14.8353 389.206 14.19C389.206 13.5447 388.843 12.98 388.117 12.496L386.544 11.407C385.818 10.923 385.334 10.4793 385.092 10.076C384.85 9.67266 384.729 9.06766 384.729 8.261V6.325C384.729 5.43766 384.971 4.71166 385.455 4.147C386.019 3.58233 386.786 3.29999 387.754 3.29999H411.107C412.075 3.29999 412.841 3.58233 413.406 4.147C413.97 4.71166 414.253 5.43766 414.253 6.325V8.98699C414.253 9.79366 414.051 10.439 413.648 10.923C413.325 11.407 412.801 11.8507 412.075 12.254L408.929 13.827C406.993 14.7143 405.42 15.642 404.21 16.61C403.08 17.4973 401.709 18.788 400.096 20.482L386.06 35.365C385.737 35.6877 385.576 36.0507 385.576 36.454C385.576 36.6153 385.656 36.938 385.818 37.422L403.726 68.035C404.936 70.1323 406.226 71.8667 407.598 73.238C409.05 74.5287 410.744 75.7387 412.68 76.868L415.221 78.078C416.108 78.4813 416.713 78.9653 417.036 79.53C417.439 80.0947 417.641 80.7803 417.641 81.587V84.975C417.641 85.8623 417.358 86.5883 416.794 87.153C416.229 87.7177 415.463 88 414.495 88H395.74C394.046 88 392.715 87.7177 391.747 87.153C390.859 86.5077 389.932 85.3783 388.964 83.765L371.661 53.152C371.419 52.668 371.056 52.426 370.572 52.426C370.249 52.426 369.926 52.5873 369.604 52.91L362.586 60.412C362.102 60.9767 361.86 61.5817 361.86 62.227V72.149C361.86 73.5203 362.102 74.569 362.586 75.295C363.07 76.021 363.917 76.5857 365.127 76.989L367.91 77.957C368.797 78.3603 369.402 78.804 369.725 79.288C370.128 79.772 370.33 80.498 370.33 81.466V84.975C370.33 85.8623 370.047 86.5883 369.483 87.153C368.999 87.7177 368.273 88 367.305 88H335.845ZM425.768 88C424.8 88 424.033 87.7177 423.469 87.153C422.904 86.5883 422.622 85.8623 422.622 84.975V81.466C422.622 80.498 422.783 79.772 423.106 79.288C423.509 78.804 424.195 78.3603 425.163 77.957L427.825 76.989C429.115 76.5857 430.003 76.021 430.487 75.295C430.971 74.569 431.213 73.5203 431.213 72.149V19.151C431.213 17.7797 430.971 16.731 430.487 16.005C430.003 15.279 429.115 14.7143 427.825 14.311L425.163 13.343C424.195 12.9397 423.509 12.496 423.106 12.012C422.783 11.528 422.622 10.802 422.622 9.834V6.325C422.622 5.43766 422.904 4.71166 423.469 4.147C424.033 3.58233 424.8 3.29999 425.768 3.29999H457.228C458.196 3.29999 458.922 3.58233 459.406 4.147C459.97 4.71166 460.253 5.43766 460.253 6.325V9.834C460.253 10.802 460.051 11.528 459.648 12.012C459.325 12.496 458.72 12.9397 457.833 13.343L455.05 14.311C453.84 14.7143 452.993 15.279 452.509 16.005C452.025 16.731 451.783 17.7797 451.783 19.151V72.149C451.783 73.5203 452.025 74.569 452.509 75.295C452.993 76.021 453.84 76.5857 455.05 76.989L457.833 77.957C458.72 78.3603 459.325 78.804 459.648 79.288C460.051 79.772 460.253 80.498 460.253 81.466V84.975C460.253 85.8623 459.97 86.5883 459.406 87.153C458.922 87.7177 458.196 88 457.228 88H425.768ZM490.353 88C489.385 88 488.619 87.7177 488.054 87.153C487.49 86.5883 487.207 85.8623 487.207 84.975V81.466C487.207 80.4173 487.409 79.651 487.812 79.167C488.216 78.6023 488.861 78.199 489.748 77.957L494.104 76.868C495.395 76.5453 496.282 76.021 496.766 75.295C497.25 74.569 497.492 73.5203 497.492 72.149V18.667C497.492 15.1983 496.121 13.464 493.378 13.464H492.894C487.974 13.464 482.166 20.0787 475.47 33.308C474.906 34.4373 474.099 35.002 473.05 35.002C472.486 35.002 471.881 34.881 471.235 34.639L467.847 33.308C466.637 32.824 466.032 31.977 466.032 30.767C466.032 30.4443 466.113 29.9603 466.274 29.315L473.534 3.542C473.857 2.49333 474.301 1.76733 474.865 1.364C475.43 0.879994 476.156 0.637992 477.043 0.637992H478.132C478.697 0.637992 479.262 0.758993 479.826 1.00099C480.391 1.243 480.956 1.56566 481.52 1.969C482.892 2.85633 484.303 3.29999 485.755 3.29999H529.799C531.251 3.29999 532.663 2.85633 534.034 1.969C535.325 1.08166 536.454 0.637992 537.422 0.637992H538.511C539.399 0.637992 540.125 0.879994 540.689 1.364C541.254 1.76733 541.698 2.49333 542.02 3.542L549.28 29.315C549.442 29.9603 549.522 30.4443 549.522 30.767C549.522 31.977 548.917 32.824 547.707 33.308L544.319 34.639C543.674 34.881 543.069 35.002 542.504 35.002C541.456 35.002 540.649 34.4373 540.084 33.308C533.228 20.0787 527.42 13.464 522.66 13.464H522.297C519.474 13.464 518.062 15.1983 518.062 18.667V72.149C518.062 73.5203 518.304 74.569 518.788 75.295C519.272 76.021 520.16 76.5453 521.45 76.868L525.806 77.957C526.694 78.199 527.299 78.6023 527.621 79.167C528.025 79.651 528.226 80.4173 528.226 81.466V84.975C528.226 85.8623 527.944 86.5883 527.379 87.153C526.895 87.7177 526.169 88 525.201 88H490.353Z" fill="white"/>
<path d="M142.226 42.8842L137.685 35.0193L122.276 8.34363L118.962 2.61004C118.395 1.6139 117.329 1 116.182 1H69.6534C68.5064 1 67.4405 1.6139 66.8728 2.61004L63.1654 9.02703L46.8874 37.2201C46.5746 37.7645 45.8795 38.0425 45.277 37.8803C44.6514 37.7181 44.2227 37.1506 44.2227 36.5019V23.1004C44.2227 10.9151 34.3053 1 22.1172 1H3.20924C1.43663 1 0 2.43629 0 4.20849V23.1004C0 31.9151 5.24834 39.7915 13.3699 43.1737C13.9029 43.3938 14.2504 43.9151 14.2504 44.4826V44.4942C14.2504 45.0734 13.9029 45.583 13.3699 45.8147C5.29468 49.1737 0.0463429 57.0039 0 65.7606C0 65.7722 0 65.8533 0 65.8649V79.6718V84.7915C0 86.5637 1.43663 88 3.20924 88H22.1056C34.2938 88 44.2111 78.0849 44.2111 65.8996V52.4981C44.2111 51.8494 44.6514 51.2819 45.2654 51.1197C45.3813 51.0849 45.5087 51.0734 45.6362 51.0734C46.146 51.0734 46.621 51.3514 46.8759 51.7915L64.2081 81.7915L66.8612 86.39C67.4289 87.3861 68.4948 88 69.6418 88H116.17C117.317 88 118.383 87.3861 118.951 86.39L123.875 77.8649L135.449 57.8147L135.611 57.5251L140.929 48.3166L142.203 46.1042C142.794 45.1081 142.794 43.8803 142.226 42.8842ZM93.2651 61.3822C84.1935 61.3822 76.8018 53.8069 76.8018 44.4942C76.8018 35.1815 84.1819 27.6062 93.2651 27.6062C102.337 27.6062 109.728 35.1815 109.728 44.4942C109.728 53.8069 102.337 61.3822 93.2651 61.3822Z"/>
</svg>

