<svg viewBox="0 0 550 90" xmlns="http://www.w3.org/2000/svg">
<path d="M217.311 89.2097C205.13 89.2097 195.934 86.7897 189.723 81.9497C183.512 77.029 180.406 69.4464 180.406 59.2017C180.406 57.427 180.446 56.096 180.527 55.2087L183.189 19.1507C183.27 17.86 183.028 16.8517 182.463 16.1257C181.979 15.319 181.092 14.714 179.801 14.3107L177.139 13.3427C176.171 12.9394 175.485 12.4957 175.082 12.0117C174.759 11.5277 174.598 10.8017 174.598 9.8337V6.3247C174.598 5.43736 174.88 4.71137 175.445 4.1467C176.01 3.58203 176.776 3.2997 177.744 3.2997H209.204C210.253 3.2997 211.019 3.58203 211.503 4.1467C212.068 4.6307 212.35 5.3567 212.35 6.3247V9.8337C212.35 10.8017 212.148 11.5277 211.745 12.0117C211.422 12.4957 210.777 12.939 209.809 13.3427L207.147 14.3107C205.937 14.714 205.09 15.2787 204.606 16.0047C204.203 16.7307 203.961 17.7794 203.88 19.1507L202.065 55.2087C201.742 62.5494 203.033 67.8734 205.937 71.1807C208.922 74.4074 213.762 76.0207 220.457 76.0207C226.588 76.0207 231.065 74.4477 233.888 71.3017C236.792 68.1557 238.083 63.1947 237.76 56.4187L236.066 18.5457C235.985 17.255 235.703 16.2467 235.219 15.5207C234.735 14.7947 233.888 14.1897 232.678 13.7057L230.016 12.8587C229.048 12.4554 228.362 12.0117 227.959 11.5277C227.636 11.0437 227.475 10.3177 227.475 9.3497V6.3247C227.475 5.43736 227.757 4.71137 228.322 4.1467C228.887 3.58203 229.653 3.2997 230.621 3.2997H254.095C255.144 3.2997 255.91 3.58203 256.394 4.1467C256.959 4.6307 257.241 5.3567 257.241 6.3247V9.3497C257.241 10.3177 257.039 11.0437 256.636 11.5277C256.233 12.0117 255.587 12.4554 254.7 12.8587L252.038 13.7057C250.747 14.1897 249.82 14.835 249.255 15.6417C248.771 16.3677 248.569 17.3357 248.65 18.5457L251.07 56.4187C251.151 57.1447 251.191 58.274 251.191 59.8067C251.191 69.5674 248.247 76.908 242.358 81.8287C236.55 86.7494 228.201 89.2097 217.311 89.2097Z" />
<path d="M268.964 87.9997C267.996 87.9997 267.23 87.7174 266.665 87.1527C266.1 86.588 265.818 85.862 265.818 84.9747V81.4657C265.818 80.4977 265.979 79.7717 266.302 79.2877C266.705 78.8037 267.391 78.36 268.359 77.9567L271.021 76.9887C272.312 76.5854 273.199 76.0207 273.683 75.2947C274.167 74.5687 274.409 73.52 274.409 72.1487V19.1507C274.409 17.7794 274.167 16.7307 273.683 16.0047C273.199 15.2787 272.312 14.714 271.021 14.3107L268.359 13.3427C267.391 12.9394 266.705 12.4957 266.302 12.0117C265.979 11.5277 265.818 10.8017 265.818 9.8337V6.3247C265.818 5.43736 266.1 4.71137 266.665 4.1467C267.23 3.58203 267.996 3.2997 268.964 3.2997H300.424C301.392 3.2997 302.118 3.58203 302.602 4.1467C303.167 4.71137 303.449 5.43736 303.449 6.3247V9.8337C303.449 10.8017 303.247 11.5277 302.844 12.0117C302.521 12.4957 301.916 12.9394 301.029 13.3427L298.246 14.3107C297.036 14.714 296.189 15.2787 295.705 16.0047C295.221 16.7307 294.979 17.7794 294.979 19.1507V72.1487C294.979 73.52 295.221 74.5687 295.705 75.2947C296.189 76.0207 297.036 76.5854 298.246 76.9887L301.029 77.9567C301.916 78.36 302.521 78.8037 302.844 79.2877C303.247 79.7717 303.449 80.4977 303.449 81.4657V84.9747C303.449 85.862 303.167 86.588 302.602 87.1527C302.118 87.7174 301.392 87.9997 300.424 87.9997H268.964Z" />
<path d="M335.845 87.9997C334.877 87.9997 334.11 87.7174 333.546 87.1527C332.981 86.588 332.699 85.862 332.699 84.9747V81.4657C332.699 80.4977 332.86 79.7717 333.183 79.2877C333.586 78.8037 334.272 78.36 335.24 77.9567L337.902 76.9887C339.192 76.5854 340.08 76.0207 340.564 75.2947C341.048 74.5687 341.29 73.52 341.29 72.1487V19.1507C341.29 17.7794 341.048 16.7307 340.564 16.0047C340.08 15.2787 339.192 14.714 337.902 14.3107L335.24 13.3427C334.272 12.9394 333.586 12.4957 333.183 12.0117C332.86 11.5277 332.699 10.8017 332.699 9.8337V6.3247C332.699 5.43736 332.981 4.71137 333.546 4.1467C334.11 3.58203 334.877 3.2997 335.845 3.2997H367.305C368.273 3.2997 368.999 3.58203 369.483 4.1467C370.047 4.71137 370.33 5.43736 370.33 6.3247V9.8337C370.33 10.8017 370.128 11.5277 369.725 12.0117C369.402 12.4957 368.797 12.9394 367.91 13.3427L365.127 14.3107C363.917 14.714 363.07 15.2787 362.586 16.0047C362.102 16.7307 361.86 17.7794 361.86 19.1507V41.5357C361.86 42.423 362.142 42.8667 362.707 42.8667C362.949 42.8667 363.271 42.665 363.675 42.2617L388.238 16.1257C388.883 15.4804 389.206 14.835 389.206 14.1897C389.206 13.5444 388.843 12.9797 388.117 12.4957L386.544 11.4067C385.818 10.9227 385.334 10.479 385.092 10.0757C384.85 9.67237 384.729 9.06736 384.729 8.2607V6.3247C384.729 5.43736 384.971 4.71137 385.455 4.1467C386.019 3.58203 386.786 3.2997 387.754 3.2997H411.107C412.075 3.2997 412.841 3.58203 413.406 4.1467C413.97 4.71137 414.253 5.43736 414.253 6.3247V8.98669C414.253 9.79337 414.051 10.4387 413.648 10.9227C413.325 11.4067 412.801 11.8504 412.075 12.2537L408.929 13.8267C406.993 14.714 405.42 15.6417 404.21 16.6097C403.08 17.497 401.709 18.7877 400.096 20.4817L386.06 35.3647C385.737 35.6874 385.576 36.0504 385.576 36.4537C385.576 36.615 385.656 36.9377 385.818 37.4217L403.726 68.0347C404.936 70.132 406.226 71.8664 407.598 73.2377C409.05 74.5284 410.744 75.7384 412.68 76.8677L415.221 78.0777C416.108 78.481 416.713 78.965 417.036 79.5297C417.439 80.0944 417.641 80.78 417.641 81.5867V84.9747C417.641 85.862 417.358 86.588 416.794 87.1527C416.229 87.7174 415.463 87.9997 414.495 87.9997H395.74C394.046 87.9997 392.715 87.7174 391.747 87.1527C390.859 86.5074 389.932 85.378 388.964 83.7647L371.661 53.1517C371.419 52.6677 371.056 52.4257 370.572 52.4257C370.249 52.4257 369.926 52.587 369.604 52.9097L362.586 60.4117C362.102 60.9764 361.86 61.5814 361.86 62.2267V72.1487C361.86 73.52 362.102 74.5687 362.586 75.2947C363.07 76.0207 363.917 76.5854 365.127 76.9887L367.91 77.9567C368.797 78.36 369.402 78.8037 369.725 79.2877C370.128 79.7717 370.33 80.4977 370.33 81.4657V84.9747C370.33 85.862 370.047 86.588 369.483 87.1527C368.999 87.7174 368.273 87.9997 367.305 87.9997H335.845Z" />
<path d="M425.768 87.9997C424.8 87.9997 424.033 87.7174 423.469 87.1527C422.904 86.588 422.622 85.862 422.622 84.9747V81.4657C422.622 80.4977 422.783 79.7717 423.106 79.2877C423.509 78.8037 424.195 78.36 425.163 77.9567L427.825 76.9887C429.115 76.5854 430.003 76.0207 430.487 75.2947C430.971 74.5687 431.213 73.52 431.213 72.1487V19.1507C431.213 17.7794 430.971 16.7307 430.487 16.0047C430.003 15.2787 429.115 14.714 427.825 14.3107L425.163 13.3427C424.195 12.9394 423.509 12.4957 423.106 12.0117C422.783 11.5277 422.622 10.8017 422.622 9.8337V6.3247C422.622 5.43736 422.904 4.71137 423.469 4.1467C424.033 3.58203 424.8 3.2997 425.768 3.2997H457.228C458.196 3.2997 458.922 3.58203 459.406 4.1467C459.97 4.71137 460.253 5.43736 460.253 6.3247V9.8337C460.253 10.8017 460.051 11.5277 459.648 12.0117C459.325 12.4957 458.72 12.9394 457.833 13.3427L455.05 14.3107C453.84 14.714 452.993 15.2787 452.509 16.0047C452.025 16.7307 451.783 17.7794 451.783 19.1507V72.1487C451.783 73.52 452.025 74.5687 452.509 75.2947C452.993 76.0207 453.84 76.5854 455.05 76.9887L457.833 77.9567C458.72 78.36 459.325 78.8037 459.648 79.2877C460.051 79.7717 460.253 80.4977 460.253 81.4657V84.9747C460.253 85.862 459.97 86.588 459.406 87.1527C458.922 87.7174 458.196 87.9997 457.228 87.9997H425.768Z" />
<path d="M490.353 87.9997C489.385 87.9997 488.619 87.7174 488.054 87.1527C487.49 86.588 487.207 85.862 487.207 84.9747V81.4657C487.207 80.417 487.409 79.6507 487.812 79.1667C488.216 78.602 488.861 78.1987 489.748 77.9567L494.104 76.8677C495.395 76.545 496.282 76.0207 496.766 75.2947C497.25 74.5687 497.492 73.52 497.492 72.1487V18.6667C497.492 15.198 496.121 13.4637 493.378 13.4637H492.894C487.974 13.4637 482.166 20.0784 475.47 33.3077C474.906 34.437 474.099 35.0017 473.05 35.0017C472.486 35.0017 471.881 34.8807 471.235 34.6387L467.847 33.3077C466.637 32.8237 466.032 31.9767 466.032 30.7667C466.032 30.444 466.113 29.96 466.274 29.3147L473.534 3.5417C473.857 2.49303 474.301 1.76703 474.865 1.3637C475.43 0.879697 476.156 0.637695 477.043 0.637695H478.132C478.697 0.637695 479.262 0.758696 479.826 1.0007C480.391 1.2427 480.956 1.56537 481.52 1.9687C482.892 2.85603 484.303 3.2997 485.755 3.2997H529.799C531.251 3.2997 532.663 2.85603 534.034 1.9687C535.325 1.08136 536.454 0.637695 537.422 0.637695H538.511C539.399 0.637695 540.125 0.879697 540.689 1.3637C541.254 1.76703 541.698 2.49303 542.02 3.5417L549.28 29.3147C549.442 29.96 549.522 30.444 549.522 30.7667C549.522 31.9767 548.917 32.8237 547.707 33.3077L544.319 34.6387C543.674 34.8807 543.069 35.0017 542.504 35.0017C541.456 35.0017 540.649 34.437 540.084 33.3077C533.228 20.0784 527.42 13.4637 522.66 13.4637H522.297C519.474 13.4637 518.062 15.198 518.062 18.6667V72.1487C518.062 73.52 518.304 74.5687 518.788 75.2947C519.272 76.0207 520.16 76.545 521.45 76.8677L525.806 77.9567C526.694 78.1987 527.299 78.602 527.621 79.1667C528.025 79.6507 528.226 80.417 528.226 81.4657V84.9747C528.226 85.862 527.944 86.588 527.379 87.1527C526.895 87.7174 526.169 87.9997 525.201 87.9997H490.353Z" />
<path d="M142.226 42.8842L137.685 35.0193L122.276 8.34363L118.962 2.61004C118.395 1.6139 117.329 1 116.182 1H69.6534C68.5064 1 67.4405 1.6139 66.8728 2.61004L63.1654 9.02703L46.8874 37.2201C46.5746 37.7645 45.8795 38.0425 45.277 37.8803C44.6514 37.7181 44.2227 37.1506 44.2227 36.5019V23.1004C44.2227 10.9151 34.3053 1 22.1172 1H3.20924C1.43663 1 0 2.43629 0 4.20849V23.1004C0 31.9151 5.24834 39.7915 13.3699 43.1737C13.9029 43.3938 14.2504 43.9151 14.2504 44.4826V44.4942C14.2504 45.0734 13.9029 45.583 13.3699 45.8147C5.29468 49.1737 0.0463429 57.0039 0 65.7606C0 65.7722 0 65.8533 0 65.8649V79.6718V84.7915C0 86.5637 1.43663 88 3.20924 88H22.1056C34.2938 88 44.2111 78.0849 44.2111 65.8996V52.4981C44.2111 51.8494 44.6514 51.2819 45.2654 51.1197C45.3813 51.0849 45.5087 51.0734 45.6362 51.0734C46.146 51.0734 46.621 51.3514 46.8759 51.7915L64.2081 81.7915L66.8612 86.39C67.4289 87.3861 68.4948 88 69.6418 88H116.17C117.317 88 118.383 87.3861 118.951 86.39L123.875 77.8649L135.449 57.8147L135.611 57.5251L140.929 48.3166L142.203 46.1042C142.794 45.1081 142.794 43.8803 142.226 42.8842ZM93.2651 61.3822C84.1935 61.3822 76.8018 53.8069 76.8018 44.4942C76.8018 35.1815 84.1819 27.6062 93.2651 27.6062C102.337 27.6062 109.728 35.1815 109.728 44.4942C109.728 53.8069 102.337 61.3822 93.2651 61.3822Z" />
</svg>

